<svg width="40" height="40" viewBox="0 0 40 40" fill="none" xmlns="http://www.w3.org/2000/svg"><path d="M15.24 18.757v-.013c-1.495 0-2.702 1.236-2.702 2.755 0 1.52 1.207 2.755 2.702 2.755 1.495 0 2.701-1.236 2.701-2.742 0-1.52-1.22-2.755-2.701-2.755z" fill="#fff"/><path d="M20 .469C9.213.469.469 9.213.469 20 .469 30.787 9.213 39.531 20 39.531c10.787 0 19.531-8.744 19.531-19.531C39.531 9.213 30.787.469 20 .469zm7.226 29.836s-.984-1.094-1.692-2.06c3.41-.965 4.696-2.896 4.696-2.896-3.546 2.192-6.857 3.035-10.23 2.926-3.373.11-6.684-.734-10.23-2.926 0 0 1.286 1.931 4.696 2.897-.708.965-1.692 2.06-1.692 2.06-5.85-.13-8.118-3.708-8.249-3.554 0-7.968 3.869-14.457 3.869-14.457 3.462-2.484 6.688-2.588 7.304-2.6l.394.373c-4.42 1.236-6.557 3.167-6.557 3.167 3.793-1.832 7.368-2.477 10.465-2.515 3.097.039 6.672.683 10.465 2.515 0 0-2.137-1.931-6.557-3.167l.394-.374c.616.013 3.842.116 7.304 2.601 0 0 3.869 6.488 3.869 14.457-.131-.154-2.4 3.425-8.249 3.553z" fill="#fff"/><path d="M24.76 18.744v.013c-1.482 0-2.701 1.236-2.701 2.755 0 1.506 1.206 2.742 2.701 2.742s2.702-1.236 2.702-2.755-1.207-2.755-2.702-2.755z" fill="#fff"/></svg>