<svg width="1132" height="199" viewBox="0 0 1132 199" fill="none" xmlns="http://www.w3.org/2000/svg"><path d="M529.666 148.24l-18.581 18.566a18.93 18.93 0 00-.6 5.092h112.813v-24.107h-88.69a26.346 26.346 0 00-4.942.449zm-2.699-29.35c-10.787 11.08-22.474 23.209-6.442 36.237l31.015-30.995c8.242-8.086 6.742-23.501 6.742-36.686l-31.315 31.444zm-70.571-31.894c0 25.757 4.195 38.632 16.018 50.461l9.291 9.734c9.288 8.086 13.333 7.936 38.957 7.936l-64.266-68.13zm4.195-2.384c0-25.756-4.195-38.634-16.019-50.463l-20.827-22.16C412.194 1.65 406.652.15 381.043.15l79.548 84.463zM30.565 25.606l-10.637 10.63v92.539a26.87 26.87 0 003.446-.3l20.528-20.504c.124-1.093.175-2.194.15-3.294v-79.07H30.565zm103.379 6.138l-6.135-6.13H37.15v24.114h61.74c23.674 0 32.965-6.904 35.054-17.984zm-7.498-7.493l-21.86-22.006C97.391.45 88.853.15 77.463.15H11.387L0 11.38c13.037 8.085 27.87 12.878 43.302 12.878l83.144-.007zM110.727 0l-3.146 3.144 57.235 57.35h31.615L136.051 0h-25.324zm91.549 84.602h104.126c-15.433-15.422-25.023-24.108-40.899-24.108H164.816c12.587 13.624 24.124 24.108 37.46 24.108zm688.041 28.447l-21.277 21.264c-.3 1.948-.3 4.043-.3 6.291v58.243a27.614 27.614 0 004.945-.45l18.596-18.559a18.97 18.97 0 00.599-5.109v-61.68h-2.563zm-121.368-7.636l-17.528-17.817h-78.216a24.207 24.207 0 00-17.041 7.088 24.174 24.174 0 00-7.083 17.033h100.84c8.691 0 13.933-2.261 19.028-6.304zm239.741 10.933l-3.3-3.297H892.713v24.108h91.999a24.11 24.11 0 0023.978-20.811zm-4.8-4.629L979.917 87.76c-1.363-.3-2.846-.15-4.346-.15h-57.984c-15.733 14.659-11.387 24.107 10.48 24.107h75.823zm128.11-3.293l-9.74-9.735-14.38 14.374v58.985c3.16.002 6.3-.62 9.23-1.831A24.091 24.091 0 001132 147.94v-39.516zm-10.49-10.484l-10.34-10.33H982.016c15.283 14.809 23.074 24.107 40.304 24.107h85.41l13.78-13.777zm-102.04 39.217h43.6c21.73 0 27.72-8.682 43.16-24.108h-86.76v24.108zm-7.94 34.741c13.34 0 23.98-10.783 24.13-24.107v-34.742h-24.13v58.849zm-2.54.15l-34.911-34.891h-33.115l9.737 9.435 15.136 15.272c11.384 10.481 23.521 10.184 43.153 10.184zM781.686 24.258h27.12L832.929.15H768.65c-11.387 13.474-16.633 24.108 13.036 24.108zm27.266 60.344a24.124 24.124 0 0017.062-7.057 24.09 24.09 0 007.062-17.05V1.498l-24.124 24.107v58.996zm-25.916 27.115h87.95c21.727.45 29.219-8.085 44.648-24.107H753.517c9.441 9.42 22.624 24.107 29.519 24.107zm-62.03-61.99h43.152c21.727 0 27.719-8.681 43.155-24.103h-65.779l-20.528 24.104zM618.519 24.276h103.69c21.727.45 29.219-8.236 44.648-24.108H642.64a24.125 24.125 0 00-17.057 7.05 24.07 24.07 0 00-7.067 17.04l.003.018zm143.225 147.623c21.578 0 31.915-1.362 46.148-16.621l46.901-45.521h-31.615l-61.434 62.142zm-91.999-87.296c23.074.15 37.15-6.29 46.898-16.771l42.106-42.235H728.63l-58.885 59.006zm-58.434 0c15.283-.15 30.715 0 46.011-14.377l44.502-44.619h-31.615l-58.898 58.996zm172.458 63.352c-.147-13.624-10.338-25.007-23.971-26.206l-110.717-10.031a26.363 26.363 0 006.97 17.784 26.392 26.392 0 0017.154 8.419l110.564 10.034zM486.211 24.258h120.618L630.953.15H510.335a24.124 24.124 0 00-17.062 7.057 24.073 24.073 0 00-7.062 17.05zm273.601 147.79l23.97-24.108h-85.547c-21.874 0-44.352 8.686-59.784 24.108h121.368-.007zM510.335 49.728h51.843c21.877 0 27.869-8.682 43.284-24.105h-71.004a24.116 24.116 0 00-22.291 14.878 24.086 24.086 0 00-1.832 9.227zm112.976 122.187c13.187 0 23.974-10.783 24.124-24.107v-36.254c0-15.423-6.891-24.108-24.124-24.108v84.469zm-36.41-60.361h36.71l-.15-24.108h-63.529c-.297 16.472 9.44 24.108 26.969 24.108zm-76.566-26.952h98.89c-15.432-15.422-22.924-24.108-44.798-24.108h-78.216a24.074 24.074 0 007.062 17.05 24.103 24.103 0 0017.062 7.058zm-24.124-24.108h24.124V48.365c-.45-13.777-10.937-24.257-24.124-24.107v36.236zm-25.62 24.108c13.337 0 24.124-10.933 24.124-24.258V0c-13.187 0-24.124 11.08-24.124 24.407v60.195zm-103.836-.133a24.12 24.12 0 0017.062-7.057 24.073 24.073 0 007.062-17.05V.15c-13.186 0-24.124 10.93-24.124 24.258v60.061zm-25.619.15a24.123 24.123 0 0017.06-7.057 24.071 24.071 0 007.06-17.05V1.498l-24.12 24.107V84.62zm-35.064-60.361h34.914L355.109.15h-97.694c15.433 15.422 36.41 24.108 38.657 24.108zM435.418 198.85l20.828-21.117c.124-.943.175-1.894.15-2.844V86.996c-13.187 0-24.124 10.93-24.124 24.258V199a22.048 22.048 0 003.146-.15zM238.387 49.728h47.947c21.724 0 27.719-8.682 43.152-24.105h-67.275l-23.824 24.105zm-41.356 9.567h16.932c12.287 0 20.828-3.893 28.02-11.829l16.022-15.722c11.837-12.578 3.146-27.248-1.5-31.444l-59.474 58.995z" fill="#B00000"/></svg>